<svg width="24" height="24" viewBox="0 0 24 24" fill="none" xmlns="http://www.w3.org/2000/svg" aria-hidden="true" focusable="false" class="chakra-icon css-hpb3q3">
  <path fill-rule="evenodd" clip-rule="evenodd" d="M6 5C6 4.44772 6.44772 4 7 4H18C18.389 4 18.7261 4.22208 18.8914 4.54637C18.9609 4.68252 19 4.83669 19 5V5.00002V15.3822C19 15.9345 18.5523 16.3822 18 16.3822C17.4477 16.3822 17 15.9345 17 15.3822V7.21954L8.1212 16.0983C7.73067 16.4889 7.09751 16.4889 6.70698 16.0983C6.31646 15.7078 6.31646 15.0747 6.70698 14.6841L15.3911 6L7 6C6.44772 6 6 5.55229 6 5ZM18 19C18.5523 19 19 19.4477 19 20C19 20.5523 18.5523 21 18 21L6 21C5.44772 21 5 20.5523 5 20C5 19.4477 5.44772 19 6 19L18 19Z" fill="#0373fc"></path>
</svg>