<svg width="24" height="24" viewBox="0 0 24 24" fill="none" xmlns="http://www.w3.org/2000/svg" aria-hidden="true" focusable="false" class="chakra-icon css-1m0qchw"><path fill-rule="evenodd" clip-rule="evenodd" d="M20.0056 9.59845C20.4085 10.0014 20.4085 10.6548 20.0056 11.0577C19.6026 11.4607 18.9493 11.4607 18.5463 11.0577L12.9523 5.46372L12.9523 21.0682C12.9523 21.6055 12.5167 22.041 11.9794 22.041C11.4421 22.041 11.0066 21.6055 11.0066 21.0682L11.0066 5.46384L5.41267 11.0578C5.0097 11.4607 4.35636 11.4607 3.95339 11.0578C3.55042 10.6548 3.55042 10.0014 3.95339 9.59848L11.2496 2.30223C11.4307 2.12114 11.6624 2.02142 11.8992 2.0031C12.1894 1.98052 12.4873 2.08022 12.7093 2.3022L20.0056 9.59845Z"/></svg>