<svg id="f7ac1269-58cb-4a69-af3a-e0a5014ebb7b" data-name="Layer 1" xmlns="http://www.w3.org/2000/svg" xmlns:xlink="http://www.w3.org/1999/xlink" viewBox="0 0 118.5 24">
  <defs>
    <radialGradient id="ad42cae3-de9b-4ceb-9b47-1cf55103a86a" cx="-523.91" cy="424.69" r="1" gradientTransform="matrix(44.34, 0, 0, -44.34, 23312.35, 18858.84)" gradientUnits="userSpaceOnUse">
      <stop offset="0.29" stop-color="#7ebe42"/>
      <stop offset="0.44" stop-color="#63ae45"/>
      <stop offset="0.69" stop-color="#009848"/>
      <stop offset="0.7" stop-color="#0763af"/>
      <stop offset="0.9" stop-color="#1798d5"/>
      <stop offset="1" stop-color="#26aae1"/>
    </radialGradient>
  </defs>
  <path d="M80.75,10.16a7.06,7.06,0,1,0,7,7.06A7.08,7.08,0,0,0,80.75,10.16Zm0,10.91a3.83,3.83,0,1,1,3.81-3.85A3.85,3.85,0,0,1,80.75,21.07Z" transform="translate(0 -0.5)" fill="#5f646a"/>
  <path d="M54.89,10a12.18,12.18,0,0,0-4.4.83A6.44,6.44,0,0,0,47,10a17.14,17.14,0,0,0-5.6.91l-.35.12V24h3.53V13.37a5.67,5.67,0,0,1,2-.32c1.75,0,2.26.56,2.26,2.38V24h3.57V15.2a7.18,7.18,0,0,0-.16-1.79,5.65,5.65,0,0,1,1.9-.35c1.67,0,2.42.75,2.42,2.38V24h3.53V15.16a4.88,4.88,0,0,0-1.07-3.65A5.53,5.53,0,0,0,54.89,10Z" transform="translate(0 -0.5)" fill="#5f646a"/>
  <path d="M69,21.2c-2.35,0-3.7-1.46-3.7-4s1.36-4.11,3.74-4.11a4.35,4.35,0,0,1,1.3.18,4.29,4.29,0,0,1,1.37.71l1.49-2.57a5.54,5.54,0,0,0-2.09-1.05A10.61,10.61,0,0,0,68.89,10c-4.25,0-7.1,2.94-7.1,7.32,0,4.21,2.7,6.92,6.89,6.92a7.14,7.14,0,0,0,4.69-1.62L71.61,20.4A4.27,4.27,0,0,1,69,21.2Z" transform="translate(0 -0.5)" fill="#5f646a"/>
  <path d="M23,10.12c-5,0-7.38,2.22-7.38,6.94V24h3.61V17c0-2.38,1.35-3.85,3.45-3.85a7.94,7.94,0,0,1,2,.28l.83-3.13A20,20,0,0,0,23,10.12Z" transform="translate(0 -0.5)" fill="#5f646a"/>
  <path d="M39,16.67V24H34.19c-3.33,0-4.8-.24-6.54-1.39-1.51-1-2.35-3-2.35-5.51,0-3.49,2.31-7,7.38-7C36.81,10.08,39,12.38,39,16.67Zm-3.53.39c0-2.66-1-4-3.1-4S29,14.64,29,17C29,19.8,30.3,21,33.32,21H35.5Z" transform="translate(0 -0.5)" fill="#5f646a"/>
  <path d="M13.69,16.67V24H8.89c-3.33,0-4.8-.24-6.55-1.39C.83,21.58,0,19.64,0,17.1c0-3.49,2.3-7,7.38-7C11.5,10.08,13.69,12.38,13.69,16.67ZM10,17.06c0-2.7-.95-4-3.06-4S3.53,14.64,3.53,17C3.53,19.8,4.88,21,7.9,21H10Z" transform="translate(0 -0.5)" fill="#5f646a"/>
  <path d="M118,1H95V24h23Z" transform="translate(0 -0.5)" fill="url(#ad42cae3-de9b-4ceb-9b47-1cf55103a86a)"/>
  <path d="M118,1H95V24h23Z" transform="translate(0 -0.5)" fill="none" stroke="#fff"/>
  <path d="M107.68,10.65a.7.7,0,0,1,.43.64c0,.23-.29.3-.57.17a.66.66,0,0,1-.42-.65C107.17,10.59,107.41,10.52,107.68,10.65Z" transform="translate(0 -0.5)" fill="#fff"/>
  <path d="M108.5,6.23c.22.11.38.31.36.45s-.22.16-.45.05-.38-.32-.36-.47S108.27,6.11,108.5,6.23Z" transform="translate(0 -0.5)" fill="#fff"/>
  <path d="M108.57,5.78c.18.1.32.27.3.38s-.18.13-.37,0-.32-.27-.3-.38S108.38,5.69,108.57,5.78Z" transform="translate(0 -0.5)" fill="#fff"/>
  <path d="M108.64,5.35c.18.09.3.24.29.34s-.17.11-.35,0-.29-.25-.28-.35S108.47,5.26,108.64,5.35Z" transform="translate(0 -0.5)" fill="#fff"/>
  <path d="M108.71,4.92c.16.09.27.22.26.31s-.15.1-.32,0-.27-.22-.26-.31S108.55,4.84,108.71,4.92Z" transform="translate(0 -0.5)" fill="#fff"/>
  <path d="M108.77,4.53c.15.08.26.2.25.28s-.14.09-.29,0-.26-.21-.25-.29S108.63,4.45,108.77,4.53Z" transform="translate(0 -0.5)" fill="#fff"/>
  <path d="M108.83,4.17c.14.08.23.19.23.26s-.13.07-.27,0-.24-.19-.23-.27S108.69,4.1,108.83,4.17Z" transform="translate(0 -0.5)" fill="#fff"/>
  <path d="M108.89,3.83c.12.07.21.16.2.24s-.11.06-.24,0-.22-.17-.21-.24S108.76,3.76,108.89,3.83Z" transform="translate(0 -0.5)" fill="#fff"/>
  <path d="M108.94,3.48c.11.06.19.14.18.2s-.1,0-.21,0-.19-.14-.18-.2S108.83,3.42,108.94,3.48Z" transform="translate(0 -0.5)" fill="#fff"/>
  <path d="M109,3.15c.1.06.17.13.17.19s-.09,0-.2,0-.17-.13-.16-.18S108.9,3.1,109,3.15Z" transform="translate(0 -0.5)" fill="#fff"/>
  <path d="M109,2.83c.09,0,.15.11.15.16s-.08,0-.17,0-.15-.11-.14-.16S109,2.78,109,2.83Z" transform="translate(0 -0.5)" fill="#fff"/>
  <path d="M109.09,2.53c.08,0,.13.09.13.13s-.07,0-.15,0-.13-.1-.12-.14S109,2.48,109.09,2.53Z" transform="translate(0 -0.5)" fill="#fff"/>
  <path d="M107.4,12.2a.57.57,0,0,1-.35-.56c0-.19.25-.25.48-.14a.59.59,0,0,1,.35.54C107.84,12.24,107.63,12.31,107.4,12.2Z" transform="translate(0 -0.5)" fill="#fff"/>
  <path d="M107.22,13.15a.56.56,0,0,1-.33-.56c0-.2.24-.27.47-.16a.56.56,0,0,1,.33.55C107.65,13.18,107.45,13.25,107.22,13.15Z" transform="translate(0 -0.5)" fill="#fff"/>
  <path d="M107,14.13a.55.55,0,0,1-.32-.56c0-.2.24-.27.46-.17a.53.53,0,0,1,.32.54C107.45,14.15,107.25,14.23,107,14.13Z" transform="translate(0 -0.5)" fill="#fff"/>
  <path d="M106.82,15.21a.53.53,0,0,1-.31-.56.29.29,0,0,1,.45-.19.53.53,0,0,1,.31.55C107.23,15.22,107,15.3,106.82,15.21Z" transform="translate(0 -0.5)" fill="#fff"/>
  <path d="M106.6,16.28a.47.47,0,0,1-.27-.49.28.28,0,0,1,.41-.19.47.47,0,0,1,.26.49A.27.27,0,0,1,106.6,16.28Z" transform="translate(0 -0.5)" fill="#fff"/>
  <path d="M106.33,17.59a.46.46,0,0,1-.25-.49.27.27,0,0,1,.39-.2.47.47,0,0,1,.26.49A.28.28,0,0,1,106.33,17.59Z" transform="translate(0 -0.5)" fill="#fff"/>
  <path d="M106,19a.41.41,0,0,1-.22-.46.25.25,0,0,1,.36-.2.42.42,0,0,1,.22.45A.27.27,0,0,1,106,19Z" transform="translate(0 -0.5)" fill="#fff"/>
  <path d="M105.74,20.42a.35.35,0,0,1-.18-.4.23.23,0,0,1,.31-.2.37.37,0,0,1,.18.4C106,20.39,105.87,20.48,105.74,20.42Z" transform="translate(0 -0.5)" fill="#fff"/>
  <path d="M108.65,11.19a.55.55,0,0,1,.34.51c0,.19-.21.25-.43.14a.59.59,0,0,1-.35-.53C108.25,11.13,108.44,11.08,108.65,11.19Z" transform="translate(0 -0.5)" fill="#fff"/>
  <path d="M109.61,11.58a.78.78,0,0,1,.43.66c0,.23-.25.31-.53.17a.76.76,0,0,1-.43-.67C109.11,11.52,109.34,11.45,109.61,11.58Z" transform="translate(0 -0.5)" fill="#fff"/>
  <path d="M116.21,11.23c-.1-.06-.18,0-.17.06a.56.56,0,0,0,.22.3c.11.07.18,0,.17-.06A.51.51,0,0,0,116.21,11.23Z" transform="translate(0 -0.5)" fill="#fff"/>
  <path d="M115.44,10.71c-.14-.08-.24-.06-.23.06a.64.64,0,0,0,.29.39c.14.08.24.06.23-.07A.69.69,0,0,0,115.44,10.71Z" transform="translate(0 -0.5)" fill="#fff"/>
  <path d="M113.3,17.88c-.19-.12-.33,0-.34.18a.87.87,0,0,0,.33.62c.19.11.33,0,.33-.2A.77.77,0,0,0,113.3,17.88Z" transform="translate(0 -0.5)" fill="#fff"/>
  <path d="M112.38,16.06c-.21-.12-.38,0-.4.2a.83.83,0,0,0,.38.65c.22.12.39,0,.39-.2A.83.83,0,0,0,112.38,16.06Z" transform="translate(0 -0.5)" fill="#fff"/>
  <path d="M111.42,14.49c-.22-.11-.39,0-.41.17a.71.71,0,0,0,.37.6c.21.12.38,0,.4-.18A.77.77,0,0,0,111.42,14.49Z" transform="translate(0 -0.5)" fill="#fff"/>
  <path d="M110.83,8.05c-.19-.1-.35-.08-.36.06s.14.32.33.43.35.08.36-.06A.6.6,0,0,0,110.83,8.05Z" transform="translate(0 -0.5)" fill="#fff"/>
  <path d="M114.76,10.91c-.15-.09-.26-.06-.25.07a.64.64,0,0,0,.29.39c.16.09.26.06.25-.07A.64.64,0,0,0,114.76,10.91Z" transform="translate(0 -0.5)" fill="#fff"/>
  <path d="M114,10.44c-.17-.09-.28-.06-.28.07a.66.66,0,0,0,.31.41c.16.09.27.06.27-.08A.67.67,0,0,0,114,10.44Z" transform="translate(0 -0.5)" fill="#fff"/>
  <path d="M112.43,10.18c-.18-.1-.33-.07-.33.08a.66.66,0,0,0,.33.46c.19.1.34.07.34-.09A.64.64,0,0,0,112.43,10.18Z" transform="translate(0 -0.5)" fill="#fff"/>
  <path d="M113.22,10c-.18-.1-.31-.07-.31.07a.61.61,0,0,0,.33.44c.18.1.31.07.31-.08A.71.71,0,0,0,113.22,10Z" transform="translate(0 -0.5)" fill="#fff"/>
  <path d="M112.4,9.5c-.2-.11-.36-.08-.36.08a.7.7,0,0,0,.36.48c.21.11.36.07.36-.09A.72.72,0,0,0,112.4,9.5Z" transform="translate(0 -0.5)" fill="#fff"/>
  <path d="M111.61,9.7c-.21-.11-.38-.08-.39.08a.66.66,0,0,0,.37.5c.21.12.38.08.38-.09A.7.7,0,0,0,111.61,9.7Z" transform="translate(0 -0.5)" fill="#fff"/>
  <path d="M110.5,13c-.22-.11-.4-.05-.43.15a.69.69,0,0,0,.37.58c.23.12.41,0,.42-.16A.69.69,0,0,0,110.5,13Z" transform="translate(0 -0.5)" fill="#fff"/>
  <path d="M110.57,12.12c-.24-.12-.43-.06-.46.15a.73.73,0,0,0,.4.61c.24.13.44.06.45-.16A.74.74,0,0,0,110.57,12.12Z" transform="translate(0 -0.5)" fill="#fff"/>
  <path d="M110.62,11.31c-.25-.13-.46-.07-.49.14a.84.84,0,0,0,.43.65c.27.13.47.06.49-.16A.79.79,0,0,0,110.62,11.31Z" transform="translate(0 -0.5)" fill="#fff"/>
  <path d="M110.67,10.55c-.24-.13-.45-.08-.47.12a.76.76,0,0,0,.42.61c.26.13.46.07.47-.14A.73.73,0,0,0,110.67,10.55Z" transform="translate(0 -0.5)" fill="#fff"/>
  <path d="M110.71,9.89c-.21-.12-.39-.08-.4.09a.63.63,0,0,0,.37.52c.22.12.39.07.4-.1A.62.62,0,0,0,110.71,9.89Z" transform="translate(0 -0.5)" fill="#fff"/>
  <path d="M110.76,9.21c-.24-.12-.43-.08-.44.09a.7.7,0,0,0,.4.55c.24.13.43.08.44-.1A.73.73,0,0,0,110.76,9.21Z" transform="translate(0 -0.5)" fill="#fff"/>
  <path d="M110.79,8.6c-.23-.12-.41-.09-.43.07a.7.7,0,0,0,.39.53c.24.12.42.08.43-.09A.7.7,0,0,0,110.79,8.6Z" transform="translate(0 -0.5)" fill="#fff"/>
  <path d="M109.31,6.72c-.16-.08-.3-.07-.31,0s.1.25.26.34.3.07.31,0S109.46,6.81,109.31,6.72Z" transform="translate(0 -0.5)" fill="#fff"/>
  <path d="M109.34,6.25c-.15-.08-.27-.07-.28,0s.09.22.24.3.27.06.28,0S109.49,6.32,109.34,6.25Z" transform="translate(0 -0.5)" fill="#fff"/>
  <path d="M109.37,5.79c-.13-.06-.23-.06-.25,0a.36.36,0,0,0,.22.25c.13.07.23.06.24,0S109.5,5.86,109.37,5.79Z" transform="translate(0 -0.5)" fill="#fff"/>
  <path d="M109.39,5.36c-.12-.06-.21-.07-.22,0s.07.16.19.23.21.06.22,0S109.5,5.42,109.39,5.36Z" transform="translate(0 -0.5)" fill="#fff"/>
  <path d="M109.41,5c-.11-.06-.2-.07-.21,0s.07.15.18.21.2.07.21,0S109.51,5,109.41,5Z" transform="translate(0 -0.5)" fill="#fff"/>
  <path d="M109.43,4.54c-.1,0-.17-.06-.18,0s.07.13.16.18.17.06.18,0S109.53,4.59,109.43,4.54Z" transform="translate(0 -0.5)" fill="#fff"/>
  <path d="M109.45,4.18c-.09,0-.16-.06-.17,0s.06.12.15.17.16.06.17,0S109.53,4.23,109.45,4.18Z" transform="translate(0 -0.5)" fill="#fff"/>
  <path d="M109.47,3.81c-.08-.05-.15-.06-.15,0s.05.1.13.14.14.06.15,0S109.54,3.85,109.47,3.81Z" transform="translate(0 -0.5)" fill="#fff"/>
  <path d="M108.45,12.6c.17.09.32,0,.34-.11a.45.45,0,0,0-.26-.41c-.17-.09-.32,0-.34.11A.44.44,0,0,0,108.45,12.6Z" transform="translate(0 -0.5)" fill="#fff"/>
  <path d="M108.3,13.55c.16.08.3,0,.33-.12a.44.44,0,0,0-.25-.41c-.16-.07-.3,0-.33.12A.44.44,0,0,0,108.3,13.55Z" transform="translate(0 -0.5)" fill="#fff"/>
  <path d="M108.08,14.52c.16.08.3,0,.32-.13a.42.42,0,0,0-.24-.41c-.16-.08-.3,0-.33.13A.44.44,0,0,0,108.08,14.52Z" transform="translate(0 -0.5)" fill="#fff"/>
  <path d="M107.87,15.58a.2.2,0,0,0,.31-.14.41.41,0,0,0-.22-.39.2.2,0,0,0-.31.14A.38.38,0,0,0,107.87,15.58Z" transform="translate(0 -0.5)" fill="#fff"/>
  <path d="M107.62,16.64a.19.19,0,0,0,.29-.15.38.38,0,0,0-.21-.37.19.19,0,0,0-.29.14A.39.39,0,0,0,107.62,16.64Z" transform="translate(0 -0.5)" fill="#fff"/>
  <path d="M107.33,17.9a.18.18,0,0,0,.27-.15.35.35,0,0,0-.19-.36.18.18,0,0,0-.27.14A.34.34,0,0,0,107.33,17.9Z" transform="translate(0 -0.5)" fill="#fff"/>
  <path d="M111.59,9.07c-.19-.11-.35-.08-.36.07a.64.64,0,0,0,.35.45c.19.1.34.07.35-.08A.62.62,0,0,0,111.59,9.07Z" transform="translate(0 -0.5)" fill="#fff"/>
  <path d="M111.54,10.39c-.17-.09-.31-.05-.32.09a.56.56,0,0,0,.31.42c.18.09.31.06.32-.09A.59.59,0,0,0,111.54,10.39Z" transform="translate(0 -0.5)" fill="#fff"/>
  <path d="M111.53,11.08c-.2-.11-.35-.06-.37.1a.66.66,0,0,0,.35.5c.2.11.36.06.36-.11A.61.61,0,0,0,111.53,11.08Z" transform="translate(0 -0.5)" fill="#fff"/>
  <path d="M111.43,13.53c-.2-.1-.35,0-.36.14a.63.63,0,0,0,.33.53c.2.11.35,0,.36-.15A.66.66,0,0,0,111.43,13.53Z" transform="translate(0 -0.5)" fill="#fff"/>
  <path d="M114.7,10.23c-.17-.09-.28-.06-.27.07a.65.65,0,0,0,.31.42c.17.09.28.06.27-.07A.69.69,0,0,0,114.7,10.23Z" transform="translate(0 -0.5)" fill="#fff"/>
  <path d="M112.32,17.24c-.18-.1-.32,0-.34.18a.73.73,0,0,0,.32.56c.18.1.32,0,.33-.19A.71.71,0,0,0,112.32,17.24Z" transform="translate(0 -0.5)" fill="#fff"/>
  <path d="M113.31,19.1c-.17-.11-.31,0-.31.19a.74.74,0,0,0,.31.58c.17.11.3,0,.3-.19A.74.74,0,0,0,113.31,19.1Z" transform="translate(0 -0.5)" fill="#fff"/>
  <path d="M111.34,15.52c-.2-.11-.36,0-.38.17a.68.68,0,0,0,.34.57c.2.11.36,0,.37-.18A.67.67,0,0,0,111.34,15.52Z" transform="translate(0 -0.5)" fill="#fff"/>
  <path d="M110.42,14c-.19-.1-.36,0-.38.15a.63.63,0,0,0,.33.53c.2.1.36,0,.37-.16A.61.61,0,0,0,110.42,14Z" transform="translate(0 -0.5)" fill="#fff"/>
  <path d="M109.53,12.5c-.22-.11-.4-.05-.43.14a.61.61,0,0,0,.35.55c.22.11.4,0,.42-.16A.62.62,0,0,0,109.53,12.5Z" transform="translate(0 -0.5)" fill="#fff"/>
  <path d="M111.47,12.7c-.18-.1-.32,0-.34.12a.63.63,0,0,0,.32.48c.18.1.32,0,.33-.13A.59.59,0,0,0,111.47,12.7Z" transform="translate(0 -0.5)" fill="#fff"/>
  <path d="M110.85,7.53c-.17-.09-.3-.08-.31,0s.12.27.29.37.31.07.32-.05A.56.56,0,0,0,110.85,7.53Z" transform="translate(0 -0.5)" fill="#fff"/>
  <path d="M113.94,9.84c-.13-.07-.23-.05-.23.05a.51.51,0,0,0,.26.33c.13.08.23.06.22-.05A.52.52,0,0,0,113.94,9.84Z" transform="translate(0 -0.5)" fill="#fff"/>
  <path d="M112.44,11.64c-.15-.08-.27-.05-.28.09a.53.53,0,0,0,.28.39c.15.08.27.05.27-.09A.57.57,0,0,0,112.44,11.64Z" transform="translate(0 -0.5)" fill="#fff"/>
  <path d="M112.36,15.06c-.18-.11-.33,0-.34.15a.73.73,0,0,0,.33.56c.19.1.34,0,.34-.17A.68.68,0,0,0,112.36,15.06Z" transform="translate(0 -0.5)" fill="#fff"/>
  <path d="M111.5,11.9c-.17-.09-.31-.05-.32.11a.56.56,0,0,0,.3.45c.18.1.32,0,.33-.11A.58.58,0,0,0,111.5,11.9Z" transform="translate(0 -0.5)" fill="#fff"/>
  <path d="M113.31,12.92c-.17-.1-.3-.05-.3.11a.63.63,0,0,0,.31.47c.17.1.3.05.3-.11A.62.62,0,0,0,113.31,12.92Z" transform="translate(0 -0.5)" fill="#fff"/>
  <path d="M114.05,21.19c-.14-.1-.24,0-.24.16a.75.75,0,0,0,.25.54c.13.1.23,0,.23-.18A.73.73,0,0,0,114.05,21.19Z" transform="translate(0 -0.5)" fill="#fff"/>
  <path d="M113.24,10.66c-.15-.09-.27-.06-.27.07a.56.56,0,0,0,.29.4c.16.09.28.06.27-.08A.54.54,0,0,0,113.24,10.66Z" transform="translate(0 -0.5)" fill="#fff"/>
  <path d="M110.06,7.12c-.16-.08-.28-.06-.29,0s.1.24.26.33.28.06.29,0A.49.49,0,0,0,110.06,7.12Z" transform="translate(0 -0.5)" fill="#fff"/>
  <path d="M111.62,7.45c-.15-.08-.26-.06-.27,0s.12.24.26.33.27.06.27,0A.51.51,0,0,0,111.62,7.45Z" transform="translate(0 -0.5)" fill="#fff"/>
  <path d="M113.19,9.42c-.13-.07-.22-.05-.21.05a.43.43,0,0,0,.22.29c.13.07.22.05.22,0A.48.48,0,0,0,113.19,9.42Z" transform="translate(0 -0.5)" fill="#fff"/>
  <path d="M112.4,12.43c-.15-.09-.27,0-.28.09a.54.54,0,0,0,.28.42c.16.09.28,0,.28-.1A.53.53,0,0,0,112.4,12.43Z" transform="translate(0 -0.5)" fill="#fff"/>
  <path d="M113.26,12.14c-.13-.08-.24,0-.24.08a.52.52,0,0,0,.25.36c.14.08.24,0,.23-.08A.48.48,0,0,0,113.26,12.14Z" transform="translate(0 -0.5)" fill="#fff"/>
  <path d="M114.15,13.45c-.15-.09-.26,0-.26.1a.63.63,0,0,0,.29.43c.15.1.25,0,.25-.1A.61.61,0,0,0,114.15,13.45Z" transform="translate(0 -0.5)" fill="#fff"/>
  <path d="M115.5,11.41c-.12-.07-.19-.05-.19.06a.55.55,0,0,0,.23.31c.11.07.19,0,.18-.06A.5.5,0,0,0,115.5,11.41Z" transform="translate(0 -0.5)" fill="#fff"/>
  <path d="M111.62,7c-.13-.07-.23-.07-.23,0s.1.2.23.28.23.06.23,0S111.75,7.06,111.62,7Z" transform="translate(0 -0.5)" fill="#fff"/>
  <path d="M111.61,8c-.14-.08-.25-.06-.25,0a.4.4,0,0,0,.24.3c.14.08.24.06.24,0A.41.41,0,0,0,111.61,8Z" transform="translate(0 -0.5)" fill="#fff"/>
  <path d="M114.2,19.92c-.16-.11-.28,0-.28.18a.79.79,0,0,0,.29.57c.16.11.27,0,.27-.18A.82.82,0,0,0,114.2,19.92Z" transform="translate(0 -0.5)" fill="#fff"/>
  <path d="M110.88,7.06c-.14-.07-.24-.06-.25,0a.43.43,0,0,0,.23.29c.14.07.24.06.25,0A.43.43,0,0,0,110.88,7.06Z" transform="translate(0 -0.5)" fill="#fff"/>
  <path d="M112.4,10.92c-.13-.08-.23-.05-.24.06a.47.47,0,0,0,.24.34c.14.07.24,0,.24-.07A.45.45,0,0,0,112.4,10.92Z" transform="translate(0 -0.5)" fill="#fff"/>
  <path d="M112.4,9c-.11-.06-.2,0-.2,0a.36.36,0,0,0,.2.26c.11.06.2,0,.2,0A.36.36,0,0,0,112.4,9Z" transform="translate(0 -0.5)" fill="#fff"/>
  <path d="M112.38,14.16c-.13-.07-.24,0-.24.1a.48.48,0,0,0,.23.38c.14.07.24,0,.24-.11A.49.49,0,0,0,112.38,14.16Z" transform="translate(0 -0.5)" fill="#fff"/>
  <path d="M113.32,16.77c-.15-.1-.27,0-.27.14a.66.66,0,0,0,.27.49c.16.09.27,0,.27-.15A.61.61,0,0,0,113.32,16.77Z" transform="translate(0 -0.5)" fill="#fff"/>
  <path d="M111.6,8.59c-.1-.06-.18,0-.18,0a.32.32,0,0,0,.18.23c.1.05.18,0,.18,0A.31.31,0,0,0,111.6,8.59Z" transform="translate(0 -0.5)" fill="#fff"/>
  <path d="M113.24,20.35c-.12-.08-.21,0-.22.15a.56.56,0,0,0,.21.43c.13.08.22,0,.22-.15A.56.56,0,0,0,113.24,20.35Z" transform="translate(0 -0.5)" fill="#fff"/>
  <path d="M114,11.17c-.13-.07-.22-.05-.22.06a.48.48,0,0,0,.24.33c.13.08.22,0,.22-.06A.55.55,0,0,0,114,11.17Z" transform="translate(0 -0.5)" fill="#fff"/>
  <path d="M112.38,7.42c-.11-.06-.2,0-.2,0s.1.19.21.26.21,0,.21,0A.45.45,0,0,0,112.38,7.42Z" transform="translate(0 -0.5)" fill="#fff"/>
  <path d="M117,11.74c-.09-.06-.15,0-.14,0a.54.54,0,0,0,.19.27c.09.06.15,0,.14-.05A.48.48,0,0,0,117,11.74Z" transform="translate(0 -0.5)" fill="#fff"/>
  <path d="M115,14c-.13-.09-.22,0-.22.09a.6.6,0,0,0,.26.41c.13.08.22,0,.22-.1A.58.58,0,0,0,115,14Z" transform="translate(0 -0.5)" fill="#fff"/>
  <path d="M114.59,22.54c-.11-.09-.19,0-.19.15a.76.76,0,0,0,.2.5c.12.09.2,0,.19-.15A.74.74,0,0,0,114.59,22.54Z" transform="translate(0 -0.5)" fill="#fff"/>
  <path d="M112.28,18.48c-.14-.08-.24,0-.25.15a.52.52,0,0,0,.23.43c.13.08.24,0,.25-.15A.55.55,0,0,0,112.28,18.48Z" transform="translate(0 -0.5)" fill="#fff"/>
  <path d="M114.12,12.69c-.1,0-.17,0-.17.06a.41.41,0,0,0,.18.27c.1.06.17,0,.16-.06A.42.42,0,0,0,114.12,12.69Z" transform="translate(0 -0.5)" fill="#fff"/>
  <path d="M112.35,7c-.1,0-.18,0-.18,0a.35.35,0,0,0,.18.21c.1.05.18.05.18,0A.39.39,0,0,0,112.35,7Z" transform="translate(0 -0.5)" fill="#fff"/>
  <path d="M113,7.37c-.08,0-.14,0-.13,0s.07.13.15.17.14.05.14,0A.33.33,0,0,0,113,7.37Z" transform="translate(0 -0.5)" fill="#fff"/>
  <path d="M111.29,16.78c-.12-.07-.22,0-.23.12a.41.41,0,0,0,.2.35.14.14,0,0,0,.23-.12A.43.43,0,0,0,111.29,16.78Z" transform="translate(0 -0.5)" fill="#fff"/>
  <path d="M110.3,15.13c-.12-.06-.22,0-.23.1a.37.37,0,0,0,.19.33c.12.06.22,0,.23-.1A.36.36,0,0,0,110.3,15.13Z" transform="translate(0 -0.5)" fill="#fff"/>
  <path d="M109.39,13.6c-.12-.06-.22,0-.24.08a.34.34,0,0,0,.19.31c.12.06.22,0,.23-.09A.34.34,0,0,0,109.39,13.6Z" transform="translate(0 -0.5)" fill="#fff"/>
  <path d="M113,6.93c-.09,0-.15,0-.15,0a.33.33,0,0,0,.16.18c.09,0,.16,0,.15,0A.33.33,0,0,0,113,6.93Z" transform="translate(0 -0.5)" fill="#fff"/>
  <path d="M113.56,6.94c-.08,0-.13,0-.13,0s.07.12.14.16.13,0,.13,0A.3.3,0,0,0,113.56,6.94Z" transform="translate(0 -0.5)" fill="#fff"/>
  <path d="M115.84,14.65c-.09-.06-.15,0-.14.06a.45.45,0,0,0,.16.28c.09,0,.15,0,.14-.07A.45.45,0,0,0,115.84,14.65Z" transform="translate(0 -0.5)" fill="#fff"/>
  <path d="M115.06,14.86c-.1-.06-.18,0-.18.09a.5.5,0,0,0,.21.33c.1.07.18,0,.17-.08A.51.51,0,0,0,115.06,14.86Z" transform="translate(0 -0.5)" fill="#fff"/>
  <path d="M114.2,14.32c-.1-.06-.17,0-.17.08a.39.39,0,0,0,.18.29c.1.07.18,0,.17-.07A.44.44,0,0,0,114.2,14.32Z" transform="translate(0 -0.5)" fill="#fff"/>
  <path d="M113.31,13.79c-.1,0-.17,0-.17.07a.35.35,0,0,0,.17.26c.09.06.16,0,.16-.07A.35.35,0,0,0,113.31,13.79Z" transform="translate(0 -0.5)" fill="#fff"/>
  <path d="M112.4,13.27c-.09,0-.17,0-.17.07a.31.31,0,0,0,.17.25c.09.06.17,0,.17-.06A.37.37,0,0,0,112.4,13.27Z" transform="translate(0 -0.5)" fill="#fff"/>
  <path d="M115.88,15.46c-.08-.06-.14,0-.14.07a.42.42,0,0,0,.17.28c.08.06.14,0,.13-.07A.43.43,0,0,0,115.88,15.46Z" transform="translate(0 -0.5)" fill="#fff"/>
  <path d="M116.74,16.11c-.08-.06-.13,0-.12.06a.43.43,0,0,0,.15.28c.08.05.13,0,.12-.07A.49.49,0,0,0,116.74,16.11Z" transform="translate(0 -0.5)" fill="#fff"/>
  <path d="M112.37,7.93c-.1-.06-.17,0-.17,0s.08.16.18.21.16.05.16,0S112.46,8,112.37,7.93Z" transform="translate(0 -0.5)" fill="#fff"/>
  <path d="M106.68,10.2c-.22-.1-.43,0-.48.12a.53.53,0,0,0,.33.52c.23.1.43.05.48-.13A.54.54,0,0,0,106.68,10.2Z" transform="translate(0 -0.5)" fill="#fff"/>
  <path d="M105.71,9.66c-.28-.13-.55-.07-.62.14a.62.62,0,0,0,.41.64c.29.13.55.06.62-.16A.61.61,0,0,0,105.71,9.66Z" transform="translate(0 -0.5)" fill="#fff"/>
  <path d="M99.22,2.8c.15.05.23.15.18.22a.39.39,0,0,1-.38,0c-.15-.06-.23-.15-.17-.22A.37.37,0,0,1,99.22,2.8Z" transform="translate(0 -0.5)" fill="#fff"/>
  <path d="M100.29,3.13c.19.07.28.19.22.28s-.26.11-.44,0-.28-.19-.22-.28S100.11,3.07,100.29,3.13Z" transform="translate(0 -0.5)" fill="#fff"/>
  <path d="M99.89,11.61a.29.29,0,0,1,.19.37.33.33,0,0,1-.43.13.28.28,0,0,1-.19-.37A.34.34,0,0,1,99.89,11.61Z" transform="translate(0 -0.5)" fill="#fff"/>
  <path d="M101.42,10.84a.41.41,0,0,1,.28.5.43.43,0,0,1-.57.17.41.41,0,0,1-.28-.51A.43.43,0,0,1,101.42,10.84Z" transform="translate(0 -0.5)" fill="#fff"/>
  <path d="M103,10.4a.46.46,0,0,1,.31.53.41.41,0,0,1-.57.16.45.45,0,0,1-.31-.54A.41.41,0,0,1,103,10.4Z" transform="translate(0 -0.5)" fill="#fff"/>
  <path d="M105.84,5.48c.2.1.34.28.3.4s-.23.15-.44,0-.34-.29-.31-.41S105.63,5.38,105.84,5.48Z" transform="translate(0 -0.5)" fill="#fff"/>
  <path d="M101,4c.2.07.3.21.24.31s-.26.12-.46,0-.3-.21-.24-.31A.42.42,0,0,1,101,4Z" transform="translate(0 -0.5)" fill="#fff"/>
  <path d="M102,4.38c.2.09.3.23.25.34s-.26.13-.46,0-.31-.23-.25-.34S101.75,4.31,102,4.38Z" transform="translate(0 -0.5)" fill="#fff"/>
  <path d="M103.61,5.72c.21.1.34.27.29.4s-.27.16-.49.07-.35-.28-.3-.41S103.39,5.63,103.61,5.72Z" transform="translate(0 -0.5)" fill="#fff"/>
  <path d="M102.91,4.76c.21.09.33.25.28.38s-.27.14-.49.05-.34-.26-.28-.38S102.7,4.67,102.91,4.76Z" transform="translate(0 -0.5)" fill="#fff"/>
  <path d="M103.87,5.17c.22.1.35.28.31.41s-.28.16-.51.06-.36-.29-.31-.42S103.64,5.07,103.87,5.17Z" transform="translate(0 -0.5)" fill="#fff"/>
  <path d="M104.55,6.12c.23.11.37.31.32.45s-.28.18-.52.07-.38-.31-.32-.45S104.32,6,104.55,6.12Z" transform="translate(0 -0.5)" fill="#fff"/>
  <path d="M104.38,10a.5.5,0,0,1,.33.53c-.06.19-.3.25-.54.15a.49.49,0,0,1-.33-.54C103.9,10,104.14,9.9,104.38,10Z" transform="translate(0 -0.5)" fill="#fff"/>
  <path d="M104.63,9.21a.54.54,0,0,1,.36.56c-.07.19-.32.25-.58.14a.53.53,0,0,1-.36-.57C104.12,9.15,104.37,9.1,104.63,9.21Z" transform="translate(0 -0.5)" fill="#fff"/>
  <path d="M104.85,8.46c.28.13.45.38.39.59s-.33.26-.62.13-.46-.39-.39-.59S104.57,8.34,104.85,8.46Z" transform="translate(0 -0.5)" fill="#fff"/>
  <path d="M105.08,7.76c.27.13.43.37.38.56s-.32.24-.6.11-.44-.37-.38-.56S104.81,7.64,105.08,7.76Z" transform="translate(0 -0.5)" fill="#fff"/>
  <path d="M105.27,7.15c.23.12.38.32.34.48s-.28.2-.52.09-.39-.33-.34-.49S105,7,105.27,7.15Z" transform="translate(0 -0.5)" fill="#fff"/>
  <path d="M105.49,6.54c.25.12.41.34.36.51s-.29.2-.55.07-.42-.35-.37-.51S105.23,6.42,105.49,6.54Z" transform="translate(0 -0.5)" fill="#fff"/>
  <path d="M105.67,6c.25.12.4.33.36.48s-.28.19-.53.07-.41-.34-.36-.5S105.43,5.86,105.67,6Z" transform="translate(0 -0.5)" fill="#fff"/>
  <path d="M107.64,5.85c.16.09.28.23.26.33s-.17.11-.34,0-.27-.23-.25-.33S107.48,5.77,107.64,5.85Z" transform="translate(0 -0.5)" fill="#fff"/>
  <path d="M107.77,5.4c.15.08.25.21.23.3s-.15.09-.3,0-.26-.21-.24-.29S107.62,5.32,107.77,5.4Z" transform="translate(0 -0.5)" fill="#fff"/>
  <path d="M107.9,5c.13.07.22.18.2.26s-.13.07-.26,0-.22-.18-.21-.26S107.76,4.91,107.9,5Z" transform="translate(0 -0.5)" fill="#fff"/>
  <path d="M108,4.57c.11.07.19.16.18.23s-.12.07-.23,0-.21-.16-.19-.23S107.9,4.51,108,4.57Z" transform="translate(0 -0.5)" fill="#fff"/>
  <path d="M108.13,4.21c.11.06.19.14.18.21s-.11.06-.22,0-.19-.14-.18-.21S108,4.15,108.13,4.21Z" transform="translate(0 -0.5)" fill="#fff"/>
  <path d="M108.23,3.86c.1.06.17.13.16.18s-.1,0-.19,0-.17-.13-.16-.18S108.14,3.81,108.23,3.86Z" transform="translate(0 -0.5)" fill="#fff"/>
  <path d="M108.31,3.57c.09,0,.16.11.15.16s-.09,0-.18,0-.15-.11-.14-.16S108.22,3.52,108.31,3.57Z" transform="translate(0 -0.5)" fill="#fff"/>
  <path d="M108.41,3.27c.08,0,.13.1.13.14s-.08,0-.16,0-.13-.1-.13-.14S108.33,3.22,108.41,3.27Z" transform="translate(0 -0.5)" fill="#fff"/>
  <path d="M106.35,11.58a.42.42,0,0,1-.25-.41c0-.14.2-.18.37-.11a.42.42,0,0,1,.26.4C106.69,11.61,106.53,11.66,106.35,11.58Z" transform="translate(0 -0.5)" fill="#fff"/>
  <path d="M106.17,12.5a.39.39,0,0,1-.24-.4c0-.14.19-.19.36-.11a.4.4,0,0,1,.24.39C106.49,12.53,106.34,12.58,106.17,12.5Z" transform="translate(0 -0.5)" fill="#fff"/>
  <path d="M106,13.48a.36.36,0,0,1-.23-.4c0-.15.19-.2.35-.13a.39.39,0,0,1,.24.4A.24.24,0,0,1,106,13.48Z" transform="translate(0 -0.5)" fill="#fff"/>
  <path d="M105.82,14.54a.35.35,0,0,1-.21-.38c0-.15.18-.2.34-.14a.38.38,0,0,1,.21.39A.23.23,0,0,1,105.82,14.54Z" transform="translate(0 -0.5)" fill="#fff"/>
  <path d="M105.61,15.7a.35.35,0,0,1-.2-.38.21.21,0,0,1,.32-.13.33.33,0,0,1,.2.37A.22.22,0,0,1,105.61,15.7Z" transform="translate(0 -0.5)" fill="#fff"/>
  <path d="M105.39,17a.31.31,0,0,1-.18-.36.21.21,0,0,1,.3-.15.32.32,0,0,1,.18.36A.22.22,0,0,1,105.39,17Z" transform="translate(0 -0.5)" fill="#fff"/>
  <path d="M104.78,5.6c.22.1.35.28.3.41s-.25.15-.47,0-.35-.28-.3-.41S104.57,5.5,104.78,5.6Z" transform="translate(0 -0.5)" fill="#fff"/>
  <path d="M104.29,6.75c.2.09.32.26.27.38s-.23.16-.43.07-.32-.26-.27-.39S104.1,6.66,104.29,6.75Z" transform="translate(0 -0.5)" fill="#fff"/>
  <path d="M104.08,7.36c.22.11.35.3.3.45s-.27.19-.5.09-.36-.3-.31-.45S103.85,7.26,104.08,7.36Z" transform="translate(0 -0.5)" fill="#fff"/>
  <path d="M103.26,9.55c.22.1.35.3.29.47s-.28.23-.51.13a.42.42,0,0,1-.29-.48A.38.38,0,0,1,103.26,9.55Z" transform="translate(0 -0.5)" fill="#fff"/>
  <path d="M101.28,3.48c.21.09.32.23.26.34s-.28.12-.5,0-.32-.23-.25-.34S101.08,3.4,101.28,3.48Z" transform="translate(0 -0.5)" fill="#fff"/>
  <path d="M101,11.88a.38.38,0,0,1,.26.48.4.4,0,0,1-.53.17.38.38,0,0,1-.25-.49A.38.38,0,0,1,101,11.88Z" transform="translate(0 -0.5)" fill="#fff"/>
  <path d="M99.47,12.49a.36.36,0,0,1,.24.48.42.42,0,0,1-.55.19.36.36,0,0,1-.24-.49A.44.44,0,0,1,99.47,12.49Z" transform="translate(0 -0.5)" fill="#fff"/>
  <path d="M102.61,11.35a.43.43,0,0,1,.28.51.38.38,0,0,1-.53.17.43.43,0,0,1-.29-.52A.4.4,0,0,1,102.61,11.35Z" transform="translate(0 -0.5)" fill="#fff"/>
  <path d="M104.09,10.93a.44.44,0,0,1,.29.48c-.06.18-.27.25-.5.15a.43.43,0,0,1-.28-.49C103.66,10.89,103.87,10.83,104.09,10.93Z" transform="translate(0 -0.5)" fill="#fff"/>
  <path d="M105.45,10.51a.5.5,0,0,1,.32.51c0,.19-.27.25-.5.15a.5.5,0,0,1-.32-.53C105,10.47,105.22,10.41,105.45,10.51Z" transform="translate(0 -0.5)" fill="#fff"/>
  <path d="M103.54,8.78a.39.39,0,0,1,.27.43c-.06.15-.26.19-.47.1s-.33-.28-.27-.43S103.33,8.69,103.54,8.78Z" transform="translate(0 -0.5)" fill="#fff"/>
  <path d="M106,5c.18.1.3.25.27.35s-.21.12-.39,0-.3-.25-.27-.35S105.81,4.91,106,5Z" transform="translate(0 -0.5)" fill="#fff"/>
  <path d="M102.25,3.93c.16.07.25.19.2.28s-.21.1-.38,0-.26-.19-.21-.28S102.08,3.86,102.25,3.93Z" transform="translate(0 -0.5)" fill="#fff"/>
  <path d="M103.07,7c.18.08.28.22.23.34s-.22.14-.41.07-.28-.23-.23-.35S102.89,6.9,103.07,7Z" transform="translate(0 -0.5)" fill="#fff"/>
  <path d="M101.79,9.93a.4.4,0,0,1,.28.47.41.41,0,0,1-.54.14.39.39,0,0,1-.28-.47A.41.41,0,0,1,101.79,9.93Z" transform="translate(0 -0.5)" fill="#fff"/>
  <path d="M103.79,8.09c.2.1.32.27.27.41s-.24.18-.45.09-.32-.27-.27-.41S103.59,8,103.79,8.09Z" transform="translate(0 -0.5)" fill="#fff"/>
  <path d="M101.71,7.19c.21.09.32.26.27.39s-.28.18-.5.09-.32-.25-.26-.39A.39.39,0,0,1,101.71,7.19Z" transform="translate(0 -0.5)" fill="#fff"/>
  <path d="M98.14,13.15a.24.24,0,0,1,.16.34.33.33,0,0,1-.41.14.23.23,0,0,1-.15-.34A.34.34,0,0,1,98.14,13.15Z" transform="translate(0 -0.5)" fill="#fff"/>
  <path d="M102.62,5.32c.19.08.3.23.25.34s-.25.14-.44.06-.3-.23-.25-.35S102.43,5.24,102.62,5.32Z" transform="translate(0 -0.5)" fill="#fff"/>
  <path d="M106.83,5.44c.16.09.27.22.25.32s-.17.11-.34,0-.27-.23-.24-.32S106.67,5.36,106.83,5.44Z" transform="translate(0 -0.5)" fill="#fff"/>
  <path d="M104.47,3.84c.12.05.2.13.19.2s-.13.08-.26,0-.2-.13-.18-.2S104.35,3.79,104.47,3.84Z" transform="translate(0 -0.5)" fill="#fff"/>
  <path d="M103.14,4.3c.15.07.23.17.2.26s-.19.09-.33,0-.23-.17-.2-.25S103,4.24,103.14,4.3Z" transform="translate(0 -0.5)" fill="#fff"/>
  <path d="M102.75,7.67c.18.08.29.24.24.36s-.24.16-.43.09-.29-.24-.23-.37S102.57,7.6,102.75,7.67Z" transform="translate(0 -0.5)" fill="#fff"/>
  <path d="M102,6.58c.16.07.25.2.2.3S102,7,101.86,7s-.26-.21-.21-.31A.31.31,0,0,1,102,6.58Z" transform="translate(0 -0.5)" fill="#fff"/>
  <path d="M100.62,6.81c.2.08.3.22.24.35a.39.39,0,0,1-.47.08c-.19-.07-.29-.22-.23-.34S100.43,6.74,100.62,6.81Z" transform="translate(0 -0.5)" fill="#fff"/>
  <path d="M100,3.7c.16,0,.24.15.19.23a.35.35,0,0,1-.37,0c-.16-.06-.24-.16-.19-.24A.37.37,0,0,1,100,3.7Z" transform="translate(0 -0.5)" fill="#fff"/>
  <path d="M104.68,3.42c.13.05.22.14.21.21s-.14.09-.28,0-.22-.14-.2-.21S104.55,3.37,104.68,3.42Z" transform="translate(0 -0.5)" fill="#fff"/>
  <path d="M105.16,4.61c.16.08.26.21.23.31s-.19.1-.35,0-.27-.21-.24-.31S105,4.54,105.16,4.61Z" transform="translate(0 -0.5)" fill="#fff"/>
  <path d="M105.34,4.16c.15.08.24.19.22.28s-.16.08-.31,0-.24-.19-.21-.27S105.2,4.09,105.34,4.16Z" transform="translate(0 -0.5)" fill="#fff"/>
  <path d="M103.31,6.39c.16.07.25.2.21.3a.27.27,0,0,1-.35,0c-.16-.07-.25-.2-.21-.3S103.16,6.32,103.31,6.39Z" transform="translate(0 -0.5)" fill="#fff"/>
  <path d="M104.08,4.74c.13.06.2.16.17.23s-.15.08-.28,0-.21-.16-.18-.23S104,4.68,104.08,4.74Z" transform="translate(0 -0.5)" fill="#fff"/>
  <path d="M102.12,9.16a.29.29,0,0,1,.2.33.29.29,0,0,1-.37.09c-.16-.07-.25-.21-.2-.33S102,9.1,102.12,9.16Z" transform="translate(0 -0.5)" fill="#fff"/>
  <path d="M104.94,5.16c.11,0,.18.14.16.21s-.14.08-.25,0-.18-.15-.16-.22S104.82,5.11,104.94,5.16Z" transform="translate(0 -0.5)" fill="#fff"/>
  <path d="M106.11,4.57c.13.07.21.18.2.25s-.14.08-.27,0-.21-.18-.19-.25S106,4.51,106.11,4.57Z" transform="translate(0 -0.5)" fill="#fff"/>
  <path d="M101.61,5c.16.07.25.18.2.27s-.21.11-.37,0-.25-.18-.2-.27S101.45,4.89,101.61,5Z" transform="translate(0 -0.5)" fill="#fff"/>
  <path d="M98.16,2.45c.13,0,.19.12.14.18a.36.36,0,0,1-.32,0c-.13,0-.19-.12-.14-.17A.33.33,0,0,1,98.16,2.45Z" transform="translate(0 -0.5)" fill="#fff"/>
  <path d="M99.51,6.42c.18.07.27.2.21.31a.39.39,0,0,1-.44.08c-.18-.06-.28-.19-.21-.3A.39.39,0,0,1,99.51,6.42Z" transform="translate(0 -0.5)" fill="#fff"/>
  <path d="M97.76,14.15a.23.23,0,0,1,.13.33.32.32,0,0,1-.38.14.22.22,0,0,1-.14-.33A.33.33,0,0,1,97.76,14.15Z" transform="translate(0 -0.5)" fill="#fff"/>
  <path d="M96.63,14.74a.19.19,0,0,1,.11.28.28.28,0,0,1-.34.12.19.19,0,0,1-.12-.28A.31.31,0,0,1,96.63,14.74Z" transform="translate(0 -0.5)" fill="#fff"/>
  <path d="M100.61,12.87a.28.28,0,1,1-.41.14A.33.33,0,0,1,100.61,12.87Z" transform="translate(0 -0.5)" fill="#fff"/>
  <path d="M99.07,13.53a.29.29,0,0,1,.18.37.3.3,0,0,1-.4.15.29.29,0,0,1-.19-.38A.31.31,0,0,1,99.07,13.53Z" transform="translate(0 -0.5)" fill="#fff"/>
  <path d="M101,6.2c.12,0,.18.14.15.22s-.17.09-.3,0-.18-.15-.14-.22S100.85,6.16,101,6.2Z" transform="translate(0 -0.5)" fill="#fff"/>
  <path d="M104.14,2.79c.1,0,.17.11.15.17s-.11.06-.22,0-.17-.11-.15-.16S104,2.75,104.14,2.79Z" transform="translate(0 -0.5)" fill="#fff"/>
  <path d="M102.23,12.36a.26.26,0,0,1,.17.32.24.24,0,0,1-.33.12.28.28,0,0,1-.17-.33A.25.25,0,0,1,102.23,12.36Z" transform="translate(0 -0.5)" fill="#fff"/>
  <path d="M103.75,11.85a.26.26,0,0,1,.17.3.21.21,0,0,1-.3.1.27.27,0,0,1-.17-.31A.21.21,0,0,1,103.75,11.85Z" transform="translate(0 -0.5)" fill="#fff"/>
  <path d="M105.16,11.54a.27.27,0,0,1,.18.28c0,.11-.15.15-.28.09a.27.27,0,0,1-.17-.29A.18.18,0,0,1,105.16,11.54Z" transform="translate(0 -0.5)" fill="#fff"/>
  <path d="M98.3,6.11c.12,0,.18.12.13.19a.28.28,0,0,1-.3.06c-.12,0-.18-.12-.14-.19A.29.29,0,0,1,98.3,6.11Z" transform="translate(0 -0.5)" fill="#fff"/>
  <path d="M99.09,7c.15,0,.22.16.17.25a.32.32,0,0,1-.36.07c-.15,0-.22-.16-.17-.25A.31.31,0,0,1,99.09,7Z" transform="translate(0 -0.5)" fill="#fff"/>
  <path d="M100.23,7.5c.13,0,.2.15.16.23s-.18.11-.32.07-.19-.15-.15-.24A.26.26,0,0,1,100.23,7.5Z" transform="translate(0 -0.5)" fill="#fff"/>
  <path d="M101.36,8c.12,0,.18.14.14.22s-.15.1-.27.06-.17-.15-.14-.22A.22.22,0,0,1,101.36,8Z" transform="translate(0 -0.5)" fill="#fff"/>
  <path d="M102.44,8.4c.11,0,.17.15.14.23a.2.2,0,0,1-.26,0c-.11,0-.17-.14-.14-.22S102.32,8.36,102.44,8.4Z" transform="translate(0 -0.5)" fill="#fff"/>
  <path d="M104.87,3.08c.1,0,.17.1.16.16s-.1,0-.21,0-.17-.1-.15-.16S104.77,3,104.87,3.08Z" transform="translate(0 -0.5)" fill="#fff"/>
  <path d="M104.34,2.46c.09,0,.15.1.14.15s-.09.05-.18,0-.16-.1-.14-.15S104.25,2.42,104.34,2.46Z" transform="translate(0 -0.5)" fill="#fff"/>
  <path d="M103.78,1.92c.08,0,.14.09.12.13s-.08.05-.16,0-.14-.09-.13-.13S103.7,1.89,103.78,1.92Z" transform="translate(0 -0.5)" fill="#fff"/>
  <path d="M105.49,3.79c.1.06.17.14.16.2s-.12.06-.23,0-.18-.14-.16-.2S105.38,3.74,105.49,3.79Z" transform="translate(0 -0.5)" fill="#fff"/>
  <path d="M97.9,6.65c.12,0,.18.12.13.2a.29.29,0,0,1-.31.06c-.12,0-.18-.12-.13-.2A.29.29,0,0,1,97.9,6.65Z" transform="translate(0 -0.5)" fill="#fff"/>
  <path d="M96.79,6.34c.11,0,.17.1.12.17a.3.3,0,0,1-.3.07c-.12,0-.17-.11-.12-.18A.32.32,0,0,1,96.79,6.34Z" transform="translate(0 -0.5)" fill="#fff"/>
  <path d="M106.23,5.93c0,.13.07.3.27.43-.23-.08-.42,0-.46.11s0,.29.21.43c-.19,0-.34,0-.38.14s.08.37.29.51c-.24-.07-.44,0-.49.15a.47.47,0,0,0,.2.45.34.34,0,0,0-.39.19.55.55,0,0,0,.24.52c-.22,0-.4,0-.45.2a.66.66,0,0,0,.44.67.51.51,0,0,0,.6-.05.77.77,0,0,0,.45.54.51.51,0,0,0,.52,0,1,1,0,0,0,.43.46.5.5,0,0,0,.52,0,.83.83,0,0,0,.43.46.43.43,0,0,0,.5,0,.93.93,0,0,0,.44.48c.29.15.53.08.56-.17a.74.74,0,0,0-.28-.55c.19,0,.33-.05.34-.22a.66.66,0,0,0-.23-.49c.16,0,.28,0,.29-.2a.72.72,0,0,0-.34-.55c.22.08.38,0,.4-.15a.61.61,0,0,0-.26-.46c.17,0,.3,0,.31-.16a.67.67,0,0,0-.33-.5c.19.06.32,0,.33-.11a.64.64,0,0,0-.37-.49c-.2-.1-.36-.09-.42,0a.67.67,0,0,0-.37-.42c-.18-.09-.34-.1-.41,0a.79.79,0,0,0-.4-.44c-.22-.11-.41-.11-.48,0a.68.68,0,0,0-.36-.4c-.24-.11-.44-.1-.48,0,0-.15-.13-.34-.37-.46S106.27,5.79,106.23,5.93Zm3,4.43a.32.32,0,0,1,.18.27c0,.09-.11.12-.22.06a.31.31,0,0,1-.19-.27C109.05,10.33,109.14,10.31,109.26,10.36Zm-.91-.44c.11.06.18.15.16.24s-.1.1-.2.05a.26.26,0,0,1-.17-.24C108.16,9.9,108.25,9.87,108.35,9.92Zm-.91-.45a.26.26,0,0,1,.16.23c0,.08-.11.1-.22.05s-.17-.15-.15-.23S107.34,9.42,107.44,9.47Zm-.82-.24c0,.08-.13.11-.25,0s-.2-.17-.18-.26.14-.11.26,0S106.64,9.14,106.62,9.23Zm2.75.49a.27.27,0,0,1,.16.23c0,.08-.09.1-.19.05a.29.29,0,0,1-.17-.23C109.19,9.69,109.27,9.67,109.37,9.72ZM106.6,8.34c.1.05.17.14.15.22s-.11.09-.22,0-.17-.15-.15-.22S106.5,8.29,106.6,8.34Zm2.85.72c.1,0,.17.14.16.21s-.09.09-.19,0a.25.25,0,0,1-.16-.22C109.27,9,109.35,9,109.45,9.06ZM106.76,7.7a.23.23,0,0,1,.15.21c0,.07-.11.08-.21,0s-.17-.14-.15-.21S106.66,7.65,106.76,7.7Zm2.76.73a.25.25,0,0,1,.16.21c0,.07-.09.08-.18,0s-.17-.14-.16-.21S109.43,8.38,109.52,8.43ZM106.91,7.1c.09.05.16.13.14.2s-.1.08-.2,0-.17-.13-.15-.2S106.81,7.05,106.91,7.1Zm2.65.68c.11.06.18.15.17.22s-.09.09-.2,0a.3.3,0,0,1-.17-.22C109.38,7.74,109.46,7.73,109.56,7.78Zm-.8-.4a.26.26,0,0,1,.15.19c0,.07-.09.08-.19,0a.23.23,0,0,1-.14-.2C108.59,7.34,108.66,7.33,108.76,7.38ZM107.94,7c.09,0,.15.13.14.19s-.09.07-.18,0-.16-.13-.15-.2S107.85,6.91,107.94,7Zm-.89-.46c.11,0,.18.14.16.21s-.11.08-.22,0-.17-.14-.16-.21S107,6.44,107.05,6.5Z" transform="translate(0 -0.5)" fill="#fff"/>
</svg>
